<svg xmlns="http://www.w3.org/2000/svg" viewBox="0 0 16 16"><title>icon-link</title>
<g fill="#c7c9f2" id="icon-link">
  <path d="M14,9.26v4.21a.52.52,0,0,1-.52.52h-11A.52.52,0,0,1,2,13.48v-11A.52.52,0,0,1,2.52,2H6.74a.52.52,0,0,0,.37-.89l-1-1A.52.52,0,0,0,5.78,0H2.52A2.53,2.53,0,0,0,0,2.52v11A2.53,2.53,0,0,0,2.52,16h11A2.53,2.53,0,0,0,16,13.48V10.22a.52.52,0,0,0-.15-.37l-1-1A.52.52,0,0,0,14,9.26Z"/>
  <path d="M7,10a1,1,0,0,1-.71-1.71l7-7a1,1,0,0,1,1.41,1.41l-7,7A1,1,0,0,1,7,10Z"/>
  <path d="M15,7a1,1,0,0,1-1-1V2H10a1,1,0,0,1,0-2h5a1,1,0,0,1,1,1V6A1,1,0,0,1,15,7Z"/>
</g>
</svg>