<svg xmlns="http://www.w3.org/2000/svg" viewBox="0 0 200 200"><defs><style>.cls-1{fill:#fff;}</style></defs><title>rb-bug-ring</title><g id="rb-logo"><circle fill="#000000" class="bg-circle" cx="100" cy="100" r="100"/><path fill="#ffffff" id="rb-bug" d="M90.6,84c0-11.24-9.49-16.28-18.89-16.28H51.09a.89.89,0,0,0-.89.89V99.36a.89.89,0,0,0,.89.89H71.71C81.11,100.25,90.6,95.22,90.6,84Zm32.14,10.73a.89.89,0,0,0,.89.89H142c15.42,0,16.62-10.68,16.62-13.95,0-6.9-2-14-16.62-14h-18.4a.89.89,0,0,0-.89.89ZM100,7a93,93,0,1,0,93,93A93,93,0,0,0,100,7Zm41.55,136.55c-9,0-15.22-1.76-19.48-3.8a.9.9,0,0,0-1.2.47c-3.24,7.13-10.64,11.18-21.13,11.18-15.21,0-20.78-13.72-25.25-24.75-4.3-10.6-7.28-17.1-13.95-17.1H51.09a.89.89,0,0,0-.89.89v18.67a.89.89,0,0,0,.89.89h7.51a.89.89,0,0,1,.89.89v7.51a.89.89,0,0,1-.89.89H32.49a.89.89,0,0,1-.89-.89V130.9a.89.89,0,0,1,.89-.89H40a.89.89,0,0,0,.89-.89V68.59A.89.89,0,0,0,40,67.7H32.49a.89.89,0,0,1-.89-.89V59.29a.89.89,0,0,1,.89-.89h39.1c7.62,0,14.6,2.36,19.68,6.66A24.3,24.3,0,0,1,99.78,84a24.3,24.3,0,0,1-8.51,18.92A28.63,28.63,0,0,1,77.6,109,.9.9,0,0,0,77,110.4a82.64,82.64,0,0,1,6,12.75c4.79,11.79,8.31,18.95,16.69,18.95,3.75,0,13.71,0,13.71-11V68.59a.89.89,0,0,0-.89-.89H105a.89.89,0,0,1-.89-.89V59.29a.89.89,0,0,1,.89-.89h36.52c7.94,0,13.92,1.73,18.27,5.3,4.81,3.94,7.25,9.88,7.25,17.66,0,7-2.49,12.29-6.37,16a.89.89,0,0,0,.21,1.43c9.54,4.86,11.38,13.35,11.38,19.17C172.29,134,156.66,143.55,141.55,143.55Zm.19-38.65H123.63a.89.89,0,0,0-.89.89v24.14c1.93,1.64,7.37,5.07,19,5.07,10.63,0,21.63-6.12,21.63-16.37C163.37,115.24,163.37,104.9,141.74,104.9Z"/></g></svg>