<svg xmlns="http://www.w3.org/2000/svg" viewBox="0 0 200 200"><defs><style>.cls-1{fill:#17171d;}</style></defs><title>rb-bug</title><g id="Layer_2" data-name="Layer 2"><g id="rb-logo"><path id="rb-bug" class="cls-1" d="M89.89,82.77c0-12.09-10.2-17.5-20.31-17.5H47.41a1,1,0,0,0-1,1V99.31a1,1,0,0,0,1,1H69.58C79.69,100.27,89.89,94.86,89.89,82.77Zm34.56,11.54a1,1,0,0,0,1,1H145.2c16.58,0,17.87-11.48,17.87-15,0-7.42-2.12-15-17.87-15H125.41a1,1,0,0,0-1,1ZM100,0A100,100,0,1,0,200,100,100,100,0,0,0,100,0Zm44.68,146.83c-9.63,0-16.37-1.89-20.94-4.08a1,1,0,0,0-1.3.5c-3.48,7.67-11.44,12-22.72,12-16.36,0-22.34-14.75-27.15-26.61-4.63-11.4-7.82-18.39-15-18.39H47.41a1,1,0,0,0-1,1v20.08a1,1,0,0,0,1,1h8.08a1,1,0,0,1,1,1v8.08a1,1,0,0,1-1,1H27.41a1,1,0,0,1-1-1v-8.08a1,1,0,0,1,1-1h8.08a1,1,0,0,0,1-1V66.23a1,1,0,0,0-1-1H27.41a1,1,0,0,1-1-1V56.23a1,1,0,0,1,1-1h42c8.19,0,15.7,2.54,21.16,7.16a26.12,26.12,0,0,1,9.15,20.34,26.12,26.12,0,0,1-9.15,20.34,30.79,30.79,0,0,1-14.69,6.6,1,1,0,0,0-.66,1.47,88.86,88.86,0,0,1,6.5,13.71c5.15,12.68,8.93,20.38,17.95,20.38,4,0,14.74,0,14.74-11.88V66.23a1,1,0,0,0-1-1h-8.08a1,1,0,0,1-1-1V56.23a1,1,0,0,1,1-1h39.27c8.54,0,15,1.86,19.65,5.7,5.17,4.24,7.79,10.63,7.79,19,0,7.52-2.68,13.21-6.85,17.22a1,1,0,0,0,.22,1.54c10.26,5.22,12.24,14.36,12.24,20.62C177.73,136.54,160.93,146.83,144.68,146.83Zm.2-41.56H125.41a1,1,0,0,0-1,1v26c2.07,1.76,7.92,5.46,20.43,5.46,11.43,0,23.26-6.58,23.26-17.6C168.14,116.39,168.14,105.27,144.88,105.27Z"/></g></g></svg>