<svg xmlns="http://www.w3.org/2000/svg" viewBox="0 0 365.59 268.07">
  <defs>
    <style>
      svg * {
        transition: fill .1s ease-out, opacity .1s ease-out;
      }
      @media all and (max-width: 170px) {
        #rb-logotype {
          opacity: 0;
        }
      }
    </style>
  </defs>
  <title>RB Logo</title>
  <desc>Logo for Ryan Boone, designer and developer</desc>
  <g id="rb-logo" fill="#ffffff">
    <g id="rb-stacked">
      <path id="rb-logotype" d="M21.36,263.63l-3.93-6.84a3.33,3.33,0,0,0-1.18-1.3v-.08c3.54-.91,5.74-3.78,5.74-7.79,0-3.78-1.93-6.21-4.84-7.2a15.89,15.89,0,0,0-5.11-.59H0v3H3.46v21.67H0v3.07H10.82v-3.07H7.4v-8.14h3.3c1.69,0,2.2.35,2.91,1.53l4.29,7.59c.94,1.65,1.5,2.08,3.85,2.08h2.36v-3.07h-.83C22.3,264.53,21.79,264.38,21.36,263.63ZM13,253.17H7.4V243.06H12a9.66,9.66,0,0,1,3.42.51c1.73.71,2.6,2.2,2.6,4.37C18,251.2,16,253.17,13,253.17Zm38.59-10.31h2.87l-5.15,8.73a9.24,9.24,0,0,0-.59,1.18h-.08s-.24-.59-.55-1.18l-5.15-8.73h2.91v-3H36.27v3H38.9l7.79,13v8.69h-3.5v3.07H54.13v-3.07h-3.5v-8.69l7.79-13H61v-3H51.57Zm35.21-3H82.33l-8.85,24.7H70.81v3.07h9.64v-3.07h-3l2.16-6.18h9.83l2.16,6.18h-3v3.07H98.3v-3.07H95.63ZM80.6,255.21,84,245.57a13.44,13.44,0,0,0,.47-2.12h.12a9.59,9.59,0,0,0,.47,2.12l3.38,9.64Zm49.56-12.35h3.54V259.5a20.45,20.45,0,0,0,.2,2.24h-.12a16.15,16.15,0,0,0-.94-2l-13.65-19.91h-7.36v3h3.46v21.67h-3.46v3.07h11v-3.07h-3.58v-16.6a15.55,15.55,0,0,0-.16-2.24h.12a11.66,11.66,0,0,0,.94,2l13.65,19.9h3.85V242.86h3.5v-3h-11ZM194.48,253v-.08a6.46,6.46,0,0,0,3.5-6,6.65,6.65,0,0,0-3.82-6.25,11.32,11.32,0,0,0-4.88-.83H176.66v3h3.46v21.67h-3.46v3.07H189.8a13.06,13.06,0,0,0,4.17-.51,7.65,7.65,0,0,0,5.11-7.4C199.08,256.55,197.47,253.84,194.48,253Zm-10.42-9.91h5.23a6.25,6.25,0,0,1,2.87.55,4,4,0,0,1,1.81,3.66,3.92,3.92,0,0,1-4.09,4.25h-5.82ZM192.43,264a6.69,6.69,0,0,1-2.48.39h-5.9v-9.64h6.21a4.49,4.49,0,0,1,4.8,4.76A4.66,4.66,0,0,1,192.43,264Zm36.07-24.63a14,14,0,0,0-14.28,14.16,14.28,14.28,0,1,0,28.56,0A14,14,0,0,0,228.5,239.36Zm0,25.21c-5.67,0-10.23-4.8-10.23-11.05a10.22,10.22,0,1,1,20.42,0C238.69,259.78,234.13,264.57,228.5,264.57Zm43.35-25.21a14,14,0,0,0-14.28,14.16,14.28,14.28,0,1,0,28.56,0A14,14,0,0,0,271.85,239.36Zm0,25.21c-5.67,0-10.23-4.8-10.23-11.05a10.22,10.22,0,1,1,20.42,0C282,259.78,277.48,264.57,271.85,264.57Zm47.32-21.71h3.54V259.5a20.45,20.45,0,0,0,.2,2.24h-.12a16.15,16.15,0,0,0-.94-2L308.2,239.83h-7.36v3h3.46v21.67h-3.46v3.07h11v-3.07h-3.58v-16.6a15.55,15.55,0,0,0-.16-2.24h.12a11.66,11.66,0,0,0,.94,2l13.65,19.9h3.85V242.86h3.5v-3h-11Zm43,18.17v3.34h-10v-9.17H362V252h-9.83v-8.93h9.28v3.23h3.42v-6.45h-20.1v3h3.46v21.67h-3.46v3.07h20.77V261Z"/>
      <path id="rb-bug" d="M171.71,86.28c0-12.66-10.69-18.33-21.28-18.33H127.21a1,1,0,0,0-1,1v34.66a1,1,0,0,0,1,1h23.22C161,104.61,171.71,98.94,171.71,86.28ZM209,98.72h20.28c17,0,18.33-11.78,18.33-15.39,0-7.61-2.18-15.39-18.33-15.39H209a1,1,0,0,0-1,1V97.72A1,1,0,0,0,209,98.72ZM182.26,0A104.15,104.15,0,1,0,286.41,104.15,104.15,104.15,0,0,0,182.26,0Zm47.06,153.38c-10.12,0-17.19-2-22-4.28a1,1,0,0,0-1.35.52c-3.66,8-12,12.6-23.85,12.6-17.17,0-23.46-15.46-28.5-27.87-4.86-11.94-8.21-19.26-15.74-19.26H127.21a1,1,0,0,0-1,1v20.59a1,1,0,0,0,1,1h8.53a1,1,0,0,1,1,1v8.48a1,1,0,0,1-1,1H106.31a1,1,0,0,1-1-1v-8.48a1,1,0,0,1,1-1h8.42a1,1,0,0,0,1-1V68.95a1,1,0,0,0-1-1h-8.2a1,1,0,0,1-1-1V58.47a1,1,0,0,1,1-1h43.9c8.58,0,16.45,2.66,22.16,7.5a27.36,27.36,0,0,1,9.59,21.31,27.37,27.37,0,0,1-9.59,21.31,32.25,32.25,0,0,1-15.4,6.92,1,1,0,0,0-.7,1.51,92.82,92.82,0,0,1,6.83,14.39c5.4,13.28,9.36,21.34,18.8,21.34,4.22,0,15.44,0,15.44-12.44V68.95a1,1,0,0,0-1-1H188.1a1,1,0,0,1-1-1V58.47a1,1,0,0,1,1-1h41.23c9,0,15.71,2,20.62,6,5.43,4.44,8.18,11.13,8.18,19.89,0,7.89-2.82,13.85-7.21,18.05a1,1,0,0,0,.24,1.59c10.78,5.47,12.86,15,12.86,21.6C264,142.61,246.38,153.38,229.32,153.38Zm0-44.19H209a1,1,0,0,0-1,1v27c2.16,1.83,8.25,5.68,21.28,5.68,11.91,0,24.22-6.86,24.22-18.33C253.55,120.77,253.55,109.19,229.32,109.19Z"/>
    </g>
  </g>
</svg>